<svg width="86" height="32" viewBox="0 0 86 32" fill="none" xmlns="http://www.w3.org/2000/svg">
<path d="M8.848 12H11.264L7.616 0.575999H3.92L0.288 12H2.64L3.568 8.912H7.92L8.848 12ZM5.376 2.864H6.08L7.28 6.832H4.176L5.376 2.864ZM17.9629 9.232C17.8349 9.936 17.3229 10.352 16.4269 10.352C15.0509 10.352 14.5069 9.216 14.5069 7.872C14.5069 6.544 15.0349 5.44 16.4269 5.44C17.2429 5.44 17.7069 5.776 17.8829 6.4H20.1069C19.8989 4.72 18.4749 3.568 16.4109 3.568C13.8669 3.568 12.2669 5.296 12.2669 7.888C12.2669 10.496 13.8669 12.208 16.4109 12.208C18.4749 12.208 19.9629 11.008 20.1709 9.232H17.9629ZM27.115 12H29.179V6.656C29.179 4.448 27.675 3.568 25.451 3.568C23.467 3.568 21.995 4.544 21.947 6.128H24.171C24.235 5.568 24.667 5.248 25.563 5.248C26.539 5.248 27.019 5.68 27.019 6.528V6.736H24.827C22.395 6.736 21.483 8.192 21.483 9.472C21.483 10.928 22.539 12.208 24.395 12.208C25.483 12.208 26.203 11.872 26.699 11.296H27.115V12ZM25.179 10.432C24.267 10.432 23.723 10.048 23.723 9.296C23.723 8.544 24.299 8.192 25.259 8.192H27.019V8.704C27.019 9.728 26.267 10.432 25.179 10.432ZM34.458 3.568C32.282 3.568 30.97 5.408 30.97 7.888C30.97 10.368 32.282 12.208 34.458 12.208C35.61 12.208 36.314 11.808 36.762 11.248H37.178V12H39.338V0.367999H37.098V4.528H36.682C36.25 3.952 35.594 3.568 34.458 3.568ZM35.178 10.352C33.834 10.352 33.21 9.248 33.21 7.888C33.21 6.528 33.834 5.44 35.178 5.44C36.57 5.44 37.178 6.592 37.178 7.888C37.178 9.184 36.57 10.352 35.178 10.352ZM49.3476 7.472C49.2996 5.232 47.8756 3.568 45.3796 3.568C42.8356 3.568 41.2356 5.232 41.2356 7.856C41.2356 10.48 42.8196 12.208 45.4276 12.208C47.6676 12.208 48.9316 11.136 49.2676 9.488H46.9956C46.7876 10.048 46.3076 10.352 45.4596 10.352C44.1796 10.352 43.5236 9.552 43.4596 8.144H49.3476V7.472ZM45.3636 5.248C46.3876 5.248 46.9316 5.824 47.0596 6.656H43.5396C43.7476 5.824 44.2916 5.248 45.3636 5.248ZM60.6225 3.568C59.6145 3.568 58.8625 3.888 58.3825 4.528H57.9665C57.5345 3.888 56.8465 3.568 55.8705 3.568C54.9105 3.568 54.2225 3.888 53.8225 4.528H53.4065V3.776H51.2465V12H53.4865V7.584C53.4865 6.48 53.9345 5.552 55.0065 5.552C55.9025 5.552 56.2545 6.176 56.2545 7.248V12H58.4945V7.408C58.4945 6.336 58.9745 5.552 59.9985 5.552C60.8945 5.552 61.2465 6.16 61.2465 7.248V12H63.4865V6.816C63.4865 4.832 62.5905 3.568 60.6225 3.568ZM68.8345 15.2L73.7945 3.776H71.5385L69.6505 8.16H69.2345L67.1865 3.776H64.8505L68.3385 11.152L66.5945 15.2H68.8345ZM7.872 22.032C7.696 20.56 6.448 19.568 4.384 19.568C1.952 19.568 0.88 20.736 0.88 22.144C0.88 23.552 1.792 24.176 3.088 24.416L4.688 24.672C5.504 24.816 5.872 25.024 5.872 25.584C5.872 26.176 5.344 26.48 4.448 26.48C3.504 26.48 2.928 26.16 2.816 25.408H0.592C0.768 27.12 1.968 28.208 4.464 28.208C6.88 28.208 8.112 26.912 8.112 25.536C8.112 23.888 7.04 23.136 5.488 22.896L4 22.672C3.44 22.56 3.12 22.448 3.12 22C3.12 21.504 3.632 21.296 4.32 21.296C5.04 21.296 5.536 21.472 5.648 22.032H7.872ZM14.0784 21.44C15.4224 21.44 16.0464 22.528 16.0464 23.888C16.0464 25.248 15.4224 26.352 14.0784 26.352C12.6864 26.352 12.0784 25.184 12.0784 23.888C12.0784 22.592 12.6864 21.44 14.0784 21.44ZM9.91838 19.776V31.2H12.1584V27.248H12.5744C13.0064 27.824 13.6624 28.208 14.7984 28.208C16.9584 28.208 18.2864 26.4 18.2864 23.888C18.2864 21.408 16.9744 19.568 14.7984 19.568C13.6464 19.568 12.9424 19.968 12.4944 20.528H12.0784V19.776H9.91838ZM23.976 19.568C21.384 19.568 19.72 21.312 19.72 23.888C19.72 26.464 21.384 28.208 23.976 28.208C26.6 28.208 28.232 26.464 28.232 23.888C28.232 21.312 26.6 19.568 23.976 19.568ZM23.976 26.352C22.584 26.352 21.96 25.216 21.96 23.888C21.96 22.576 22.584 21.44 23.976 21.44C25.384 21.44 25.992 22.576 25.992 23.888C25.992 25.216 25.384 26.352 23.976 26.352ZM35.6891 19.776H34.9211C33.6091 19.776 32.9691 20.32 32.7131 20.704H32.2971V19.776H30.1371V28H32.3771V24.4C32.3771 22.752 33.1611 21.856 34.8891 21.856H35.6891V19.776ZM40.5428 19.776V17.472H38.3028V19.776H37.1028V21.648H38.3028V25.456C38.3028 27.472 39.6948 28 41.5668 28H42.3508V26.096H41.5988C40.8307 26.096 40.5428 25.744 40.5428 25.184V21.648H42.3508V19.776H40.5428ZM49.6191 25.232C49.4911 25.936 48.9791 26.352 48.0831 26.352C46.7071 26.352 46.1631 25.216 46.1631 23.872C46.1631 22.544 46.6911 21.44 48.0831 21.44C48.8991 21.44 49.3631 21.776 49.5391 22.4H51.7631C51.5551 20.72 50.1311 19.568 48.0671 19.568C45.5231 19.568 43.9231 21.296 43.9231 23.888C43.9231 26.496 45.5231 28.208 48.0671 28.208C50.1311 28.208 51.6191 27.008 51.8271 25.232H49.6191ZM58.7713 28H60.8353V22.656C60.8353 20.448 59.3313 19.568 57.1073 19.568C55.1233 19.568 53.6513 20.544 53.6033 22.128H55.8273C55.8913 21.568 56.3233 21.248 57.2193 21.248C58.1953 21.248 58.6753 21.68 58.6753 22.528V22.736H56.4833C54.0513 22.736 53.1393 24.192 53.1393 25.472C53.1393 26.928 54.1953 28.208 56.0513 28.208C57.1393 28.208 57.8593 27.872 58.3553 27.296H58.7713V28ZM56.8353 26.432C55.9233 26.432 55.3793 26.048 55.3793 25.296C55.3793 24.544 55.9553 24.192 56.9153 24.192H58.6753V24.704C58.6753 25.728 57.9233 26.432 56.8353 26.432ZM72.4663 19.568C71.4583 19.568 70.7063 19.888 70.2263 20.528H69.8103C69.3783 19.888 68.6903 19.568 67.7143 19.568C66.7543 19.568 66.0663 19.888 65.6663 20.528H65.2503V19.776H63.0903V28H65.3303V23.584C65.3303 22.48 65.7783 21.552 66.8503 21.552C67.7463 21.552 68.0983 22.176 68.0983 23.248V28H70.3383V23.408C70.3383 22.336 70.8183 21.552 71.8423 21.552C72.7383 21.552 73.0903 22.16 73.0903 23.248V28H75.3303V22.816C75.3303 20.832 74.4343 19.568 72.4663 19.568ZM81.7503 21.44C83.0943 21.44 83.7183 22.528 83.7183 23.888C83.7183 25.248 83.0943 26.352 81.7503 26.352C80.3583 26.352 79.7503 25.184 79.7503 23.888C79.7503 22.592 80.3583 21.44 81.7503 21.44ZM77.5903 19.776V31.2H79.8303V27.248H80.2463C80.6783 27.824 81.3343 28.208 82.4703 28.208C84.6302 28.208 85.9583 26.4 85.9583 23.888C85.9583 21.408 84.6463 19.568 82.4703 19.568C81.3183 19.568 80.6143 19.968 80.1663 20.528H79.7503V19.776H77.5903Z" fill="white"/>
</svg>
